<svg xmlns="http://www.w3.org/2000/svg" xmlns:xlink="http://www.w3.org/1999/xlink" width="68" height="68"><rect id="backgroundrect" width="100%" height="100%" x="0" y="0" fill="none" stroke="none"/>
  <defs>
    <filter id="Rectangle_1021" x="0" y="0" width="68" height="68" filterUnits="userSpaceOnUse">
      <feOffset dy="3" input="SourceAlpha"/>
      <feGaussianBlur stdDeviation="3" result="blur"/>
      <feFlood flood-opacity="0.251"/>
      <feComposite operator="in" in2="blur"/>
      <feComposite in="SourceGraphic"/>
    </filter>
  </defs>
  
<g class="currentLayer" style=""><title>Layer 1</title><g data-name="Group 211" class="" id="Group_211">
    <g filter="url(#Rectangle_1021)" id="svg_6">
      <g id="Rectangle_1021-2" data-name="Rectangle 1021" fill="#213758" stroke="#405b80" stroke-width="1">
        <rect width="48.548187255859375" height="48.548187255859375" rx="6" stroke="none" y="5.363699495792389" x="15.056614220142365" id="svg_2"/>
        <rect x="14.854330360889435" y="5.161415636539459" width="48.952754974365234" height="48.952754974365234" rx="6.5" fill="none" id="svg_3"/>
      </g>
    </g>
    <g id="svg_8">
      <path id="Path_79" data-name="Path 79" d="M29.838922289310673,26.054269284484036 a1.9493747439418134,1.9493747439418134 0 1 0 -1.9493747439418134,-1.9493747439418134 A1.950937995540805,1.950937995540805 0 0 0 29.838922289310673,26.054269284484036 zm0,0 " fill="#8fa7c7"/>
      <path id="Path_80" data-name="Path 80" d="M51.45480833528485,16.672999970028258 H27.071077195846875 A4.069956285157806,4.069956285157806 0 0 0 23.007189433977075,20.737292300117247 v17.881915288665507 A4.069956285157806,4.069956285157806 0 0 0 27.071077195846875,42.682690782433355 h24.38373113943798 a4.069956285157806,4.069956285157806 0 0 0 4.064292330088997,-4.064292330088997 v-17.881915288665507 A4.069956285157806,4.069956285157806 0 0 0 51.45480833528485,16.672999970028258 zM27.071077195846875,19.924514747743288 h24.38373113943798 a0.8131821205931601,0.8131821205931601 0 0 1 0.8127775523739604,0.8127775523739604 V32.277196184594516 L47.1328060495651,26.285136290014776 a2.9128911782441547,2.9128911782441547 0 0 0 -2.18021813327191,-0.999688069644626 a2.8412826034456526,2.8412826034456526 0 0 0 -2.1717222006686976,1.025580435673463 L36.74349418049427,33.55805916658355 l-1.9670106817532056,-1.9621558631227987 a2.85341965002167,2.85341965002167 0 0 0 -4.031522304333751,0 L26.25829964347291,36.08094658151833 V20.737292300117247 A0.8127775523739604,0.8127775523739604 0 0 1 27.071077195846875,19.924514747743288 zm0,0 " fill="#8fa7c7"/>
    </g>
  </g></g></svg>